ply
format ascii 1.0
comment PCL generated
element vertex 29
property float x
property float y
property float z
property uchar red
property uchar green
property uchar blue
property float nx
property float ny
property float nz
property float curvature
element face 2
property list uchar int vertex_indices
end_header
107.56 -298.79 46.77 0 0 0 0.70704 -0.00040415 0.70717 0 
182.18 187.39 37.07 0 0 0 -0.44721 -0.89443 0 0 
131.22 148.76 -73.59 0 0 0 0.8166 0.40814 0.40814 0 
182.16 187.4 37.11 0 0 0 0.89443 0 0.44721 0 
131.23 148.75 -73.6 0 0 0 0.8166 0.40814 0.40814 0 
182.16 187.4 37.11 0 0 0 0.89443 0 0.44721 0 
142.8 2.2 10.71 0 0 0 -0.39064 -0.9113 0.13014 0 
181.51 187.33 38.08 0 0 0 0 -1 0 0 
181.51 187.33 38.09 0 0 0 0 -1 0 0 
181.5 187.33 38.1 0 0 0 0 -1 0 0 
137.75 131.81 -43 0 0 0 -0.57713 -0.57713 0.57779 0 
107.55 -298.78 46.78 0 0 0 0.70704 -0.00040415 0.70717 0 
-264.68 77.82 -183.9 0 0 0 0.57955 -0.5747 0.57779 0 
-264.68 77.82 -183.9 0 0 0 0.57955 -0.5747 0.57779 0 
-216.09 79.72 -110.53 0 0 0 0 0 0 0 
107.53 -298.78 46.8 0 0 0 0.70704 -0.00040415 0.70717 0 
-264.69 77.823 -183.88 0 0 0 0 1 0 0 
-264.66 77.812 -183.93 0 0 0 -0.12309 -0.98473 0.12309 0 
-264.49 73.09 -250.77 0 0 0 0 1 0 0 
-264.15 72.93 -251.1 0 0 0 -0.4814 -0.84272 0.24098 0 
-264.49 73.09 -250.77 0 0 0 0 1 0 0 
-264.53 73.1 -250.72 0 0 0 -0.40399 -0.90919 -0.10085 0 
-216.09 79.72 -110.54 0 0 0 0 0 0 0 
-216.09 79.72 -110.53 0 0 0 0 0 0 0 
-216.09 79.72 -110.52 0 0 0 0 0 0 0 
-264.5 73.09 -250.75 0 0 0 -0.53484 -0.80145 -0.26763 0 
131.21 148.76 -73.57 0 0 0 0.8166 0.40814 0.40814 0 
137.76 131.8 -43 0 0 0 -0.57713 -0.57713 0.57779 0 
137.77 131.8 -42.99 0 0 0 -0.57713 -0.57713 0.57779 0 
3 1 5 3
3 22 23 24
